<svg id="图层_1" data-name="图层 1" xmlns="http://www.w3.org/2000/svg" viewBox="0 0 19 18.5"><defs><style>.cls-1,.cls-3{fill:#f19027;}.cls-1{opacity:0.09977;}.cls-1,.cls-4{isolation:isolate;}.cls-2{fill:none;}.cls-2,.cls-3{stroke:#f19027;}.cls-3{stroke-width:0.5px;}.cls-4{fill:#f18f27;opacity:0.23123;}</style></defs><title>11</title><g id="Page-1"><g id="Group"><circle id="Oval-Copy" class="cls-1" cx="10.5" cy="10" r="8.5"/><circle id="Oval" class="cls-2" cx="9" cy="9" r="8.5"/><g id="五角星"><path id="Shape" class="cls-3" d="M13.38362,8.90757a.36186.36186,0,0,0-.21421-.65909L10.899,7.91861a.78618.78618,0,0,1-.51161-.37147L9.37216,5.4898a.36178.36178,0,0,0-.6929,0L7.66383,7.54713a.78565.78565,0,0,1-.51161.37147L4.882,8.24848a.36186.36186,0,0,0-.21421.65909L6.31074,10.5089a.78638.78638,0,0,1,.1953.60147l-.38771,2.26109a.40243.40243,0,0,0,.12879.41218.32342.32342,0,0,0,.1933.06028.52138.52138,0,0,0,.23845-.065l2.03064-1.0677a.78609.78609,0,0,1,.63239,0l2.03064,1.06748a.36183.36183,0,0,0,.56055-.40751l-.38771-2.26086a.78575.78575,0,0,1,.1953-.6017ZM11.2164,11.16688l.38793,2.26109a.55351.55351,0,0,1,.00556.08253.19188.19188,0,0,1-.08208-.02692l-2.03064-1.0677a1.12045,1.12045,0,0,0-.94292,0l-2.03064,1.0677a.55566.55566,0,0,1-.07674.0307.18526.18526,0,0,1,.00022-.08631L6.835,11.16688A1.11947,1.11947,0,0,0,6.54363,10.27L4.9007,8.66867a.52837.52837,0,0,1-.05294-.06362.19158.19158,0,0,1,.0823-.02625l2.27021-.32988A1.11836,1.11836,0,0,0,7.963,7.69483L8.97822,5.6375a.51608.51608,0,0,1,.04427-.07007A.18881.18881,0,0,1,9.073,5.6375l1.01543,2.05733a1.11843,1.11843,0,0,0,.76252.55409l2.27043.32988a.1894.1894,0,0,1,.08008.02024.18458.18458,0,0,1-.05094.06962L11.50757,10.27a1.11931,1.11931,0,0,0-.29117.89687Z" transform="translate(-0.00754 -0.73051)"/></g><polygon id="Path-2" class="cls-4" points="9.021 5.015 7.929 6.815 4.966 7.647 6.72 10.073 6.388 12.957 8.824 11.844 11.643 12.796 11.643 9.922 13.297 7.797 10.524 7.056 9.021 5.015"/></g></g></svg>