<svg id="图层_1" data-name="图层 1" xmlns="http://www.w3.org/2000/svg" viewBox="0 0 19 18.5"><defs><style>.cls-1,.cls-4{fill:#3bbdfe;isolation:isolate;}.cls-1{opacity:0.1;}.cls-2{fill:none;}.cls-2,.cls-3{stroke:#3bbdfe;}.cls-3{fill:#c6ecff;}.cls-4{opacity:0.17934;}</style></defs><title>33</title><g id="Page-1"><g id="Group-8"><g id="Group"><circle id="Oval-Copy" class="cls-1" cx="10.5" cy="10" r="8.5"/><circle id="Oval" class="cls-2" cx="9" cy="9" r="8.5"/></g><g id="Group-6"><path id="Shape" class="cls-3" d="M12.66735,5.13627,7.71765,7.26652l-.026.01336L7.658,7.299l-.03228.021-.031.023-.02973.0248-.02817.0265-.02653.02812-.02486.02966-.023.031-.021.0322-.0192.03355-.01336.026L5.746,12.04582c-.119.2494-.32086.98833-.071.8695l4.9497-2.13021.02527-.013.0337-.01918.03249-.02112.03114-.023.02984-.02483.0284-.0267.02674-.02833.02487-.02979.023-.03108.02116-.03245.01922-.03366.013-.0252,1.66287-4.47105C12.71533,5.75637,12.91714,5.01748,12.66735,5.13627Z" transform="translate(-0.13674 0.00001)"/><polygon id="Path-8" class="cls-4" points="7.575 7.292 12.183 5.753 10.991 10.056 5.855 12.521 7.575 7.292"/></g></g></g></svg>