<svg id="图层_1" data-name="图层 1" xmlns="http://www.w3.org/2000/svg" viewBox="0 0 19 18.5"><defs><style>.cls-1{fill:none;stroke:#b480f0;}.cls-2{fill:#bb89f1;opacity:0.09977;isolation:isolate;}.cls-3{fill:#bb87f3;}</style></defs><title>44</title><g id="Page-1"><g id="Group-2"><circle id="Oval" class="cls-1" cx="9" cy="9" r="8.5"/><circle id="Oval-Copy" class="cls-2" cx="10.5" cy="10" r="8.5"/><path id="Shape" class="cls-3" d="M12.70835,6.14542a1.10108,1.10108,0,0,0,.20739.64292l-2.12165,3.5423c-.027-.00207-.05185-.00207-.07881-.00207-.03526,0-.07051.00207-.1037.00415L9.32781,8.28988a1.0942,1.0942,0,0,0,.19288-.62218,1.19587,1.19587,0,0,0-2.38919,0,1.11008,1.11008,0,0,0,.19288.62218L6.04061,10.33272c-.03526-.00207-.06844-.00415-.1037-.00415a1.142,1.142,0,1,0,1.19874,1.14067,1.09421,1.09421,0,0,0-.19288-.62218L8.22655,8.80422c.03526.00207.06844.00415.1037.00415s.07051-.00207.1037-.00415l1.28377,2.04284a1.09421,1.09421,0,0,0-.19288.62218,1.19587,1.19587,0,0,0,2.38919,0,1.10108,1.10108,0,0,0-.20739-.64292l2.1175-3.5423c.027.00207.05185.00207.07881.00207a1.14189,1.14189,0,1,0-1.19459-1.14067Z" transform="translate(-0.81837 0.00001)"/></g></g></svg>