<svg id="图层_1" data-name="图层 1" xmlns="http://www.w3.org/2000/svg" viewBox="0 0 18.95626 18.50268"><defs><style>.cls-1,.cls-2{fill:none;stroke:#fe8544;}.cls-2{stroke-linecap:round;}.cls-3,.cls-4{fill:#fe8544;}.cls-3{opacity:0.1;isolation:isolate;}</style></defs><title>66</title><g id="Page-1"><g id="Group-5-Copy"><path id="Path-11" class="cls-1" d="M12.62984.50422H3.56454Q1.39687.46732,1.30621,3.08906t0,10.34334q-.03753,3.15915,2.25832,3.08808t11.46721-.07107q2.29171.14573,2.27835-2.18307t.01335-6.20558" transform="translate(-0.76088 -0.00371)"/><path id="Path-7" class="cls-2" d="M17.32346,8.53406v-1.92" transform="translate(-0.76088 -0.00371)"/><g id="Group-5"><rect id="Rectangle-4" class="cls-3" x="1.95626" y="1.50268" width="17" height="17" rx="2" ry="2"/><path id="Path-5" class="cls-4" d="M9.66986,10.26116l6.02786-6.60167,2.34188-2.56481a.65.65,0,1,0-.96-.87657L8.70985,9.38459a.65.65,0,0,0,.96.87657Z" transform="translate(-0.76088 -0.00371)"/><path id="Path-7-Copy" class="cls-2" d="M11.49639.5051h1.0594" transform="translate(-0.76088 -0.00371)"/></g></g></g></svg>