<svg id="图层_1" data-name="图层 1" xmlns="http://www.w3.org/2000/svg" viewBox="0 0 16.57125 18.48856"><defs><style>.cls-1{fill:#bec6ca;opacity:0.19869;isolation:isolate;}.cls-2,.cls-3,.cls-4,.cls-5,.cls-6,.cls-7{fill:none;}.cls-2{stroke:#a5acaf;}.cls-3{stroke:#2ca586;}.cls-3,.cls-4,.cls-5{stroke-width:2.3px;}.cls-4{stroke:#b34db0;}.cls-5{stroke:#fcc36a;}.cls-6,.cls-7{stroke:#bec6ca;}.cls-7{stroke-linecap:round;stroke-width:1.3px;}</style></defs><title>22</title><g id="Page-1"><g id="Group-7"><rect id="Rectangle-5" class="cls-1" x="3.16757" y="1.36162" width="13.40368" height="17.12693" rx="2" ry="2"/><path id="Path-9" class="cls-2" d="M.70919,4.59479H2.27444" transform="translate(-0.70919 -0.10283)"/><path id="Path-9-2" data-name="Path-9" class="cls-2" d="M.70919,6.45641H2.27444" transform="translate(-0.70919 -0.10283)"/><path id="Path-9-3" data-name="Path-9" class="cls-2" d="M.70919,8.318H2.27444" transform="translate(-0.70919 -0.10283)"/><path id="Path-9-4" data-name="Path-9" class="cls-2" d="M.70919,10.17966H2.27444" transform="translate(-0.70919 -0.10283)"/><path id="Path-10" class="cls-3" d="M15.19642,4.68243H17.274" transform="translate(-0.70919 -0.10283)"/><path id="Path-10-2" data-name="Path-10" class="cls-4" d="M15.19642,8.03335H17.274" transform="translate(-0.70919 -0.10283)"/><path id="Path-10-3" data-name="Path-10" class="cls-5" d="M15.19642,11.38427H17.274" transform="translate(-0.70919 -0.10283)"/><rect id="Rectangle-5-2" data-name="Rectangle-5" class="cls-6" x="1.80595" y="0.5" width="12.40369" height="16.12693" rx="2" ry="2"/><path id="Path-4" class="cls-7" d="M4.74277,4.68243h7.9751" transform="translate(-0.70919 -0.10283)"/><path id="Path-4-2" data-name="Path-4" class="cls-7" d="M4.74277,7.68243h7.9751" transform="translate(-0.70919 -0.10283)"/><path id="Path-4-3" data-name="Path-4" class="cls-7" d="M4.74277,10.68243h7.9751" transform="translate(-0.70919 -0.10283)"/></g></g></svg>