<?xml version="1.0" standalone="no"?>
<!DOCTYPE svg PUBLIC "-//W3C//DTD SVG 1.1//EN" "http://www.w3.org/Graphics/SVG/1.1/DTD/svg11.dtd" >
<svg xmlns="http://www.w3.org/2000/svg">
<metadata>
Created by FontForge 20120731 at Wed Jun 15 18:08:52 2016
 By admin
</metadata>
<defs>
<font id="iconfont" horiz-adv-x="1024" >
  <font-face 
    font-family="iconfont"
    font-weight="500"
    font-stretch="normal"
    units-per-em="1024"
    panose-1="2 0 6 3 0 0 0 0 0 0"
    ascent="896"
    descent="-128"
    x-height="792"
    bbox="-1 -128.5 1579 897"
    underline-thickness="50"
    underline-position="-100"
    unicode-range="U+0078-E658"
  />
<missing-glyph horiz-adv-x="374" 
d="M34 0v682h272v-682h-272zM68 34h204v614h-204v-614z" />
    <glyph glyph-name=".notdef" horiz-adv-x="374" 
d="M34 0v682h272v-682h-272zM68 34h204v614h-204v-614z" />
    <glyph glyph-name=".null" horiz-adv-x="0" 
 />
    <glyph glyph-name="nonmarkingreturn" horiz-adv-x="341" 
 />
    <glyph glyph-name="x" unicode="x" horiz-adv-x="1001" 
d="M281 543q-27 -1 -53 -1h-83q-18 0 -36.5 -6t-32.5 -18.5t-23 -32t-9 -45.5v-76h912v41q0 16 -0.5 30t-0.5 18q0 13 -5 29t-17 29.5t-31.5 22.5t-49.5 9h-133v-97h-438v97zM955 310v-52q0 -23 0.5 -52t0.5 -58t-10.5 -47.5t-26 -30t-33 -16t-31.5 -4.5q-14 -1 -29.5 -0.5
t-29.5 0.5h-32l-45 128h-439l-44 -128h-29h-34q-20 0 -45 1q-25 0 -41 9.5t-25.5 23t-13.5 29.5t-4 30v167h911zM163 247q-12 0 -21 -8.5t-9 -21.5t9 -21.5t21 -8.5q13 0 22 8.5t9 21.5t-9 21.5t-22 8.5zM316 123q-8 -26 -14 -48q-5 -19 -10.5 -37t-7.5 -25t-3 -15t1 -14.5
t9.5 -10.5t21.5 -4h37h67h81h80h64h36q23 0 34 12t2 38q-5 13 -9.5 30.5t-9.5 34.5q-5 19 -11 39h-368zM336 498v228q0 11 2.5 23t10 21.5t20.5 15.5t34 6h188q31 0 51.5 -14.5t20.5 -52.5v-227h-327z" />
    <glyph glyph-name="uniE600" unicode="&#xe600;" 
d="M150 22q-92 92 -128.5 213.5t-12.5 245.5t103 223h-112v64h256v-256h-64v186q-84 -86 -114 -201t1 -229.5t116 -200.5q94 -94 224 -121t248 18l49 -50q-94 -40 -195.5 -42t-198.5 36.5t-172 113.5zM768 0v256h64v-185q84 86 114 200.5t-1 229t-116 200.5q-92 92 -218 120
t-242 -12l-49 50q95 36 192 37t192.5 -37.5t169.5 -112.5q92 -91 128.5 -213t12.5 -245.5t-103 -223.5h112v-64h-256z" />
    <glyph glyph-name="uniE601" unicode="&#xe601;" horiz-adv-x="1025" 
d="M150 22q-74 74 -112 169.5t-38 192.5t38 192.5t112 169.5q98 98 230 133t264 0t230 -133q74 -74 112 -169.5t38 -192.5t-38 -192.5t-111.5 -169.5t-169.5 -112t-193 -38t-192.5 38t-169.5 112zM838 58.5q88 88.5 119.5 207t0 237t-119.5 207t-207 120t-237.5 0t-207 -120
t-120 -207t0 -237t120 -207t207 -120t237.5 0t207 120zM226 327v57h286v341h57v-341v-57h-343z" />
    <glyph glyph-name="uniE602" unicode="&#xe602;" horiz-adv-x="1025" 
d="M150 22q-74 74 -112 169.5t-38 192.5t38 192.5t112 169.5q98 98 230 133t264 0t230 -133q74 -74 112 -169.5t38 -192.5t-38 -192.5t-111.5 -169.5t-169.5 -112t-193 -38t-192.5 38t-169.5 112zM569 327v57v341h-57v-341h-286v-57h343z" />
    <glyph glyph-name="uniE603" unicode="&#xe603;" horiz-adv-x="1229" 
d="M205 -128v68h341v138h-546v68h1v750h68h1091h68v0v-68v-682v-68h-546v-138h341v-68h-818zM1160 146v682h-1091v-682h1091z" />
    <glyph glyph-name="uniE604" unicode="&#xe604;" 
d="M154 -128v102v871h51v-768h614v768h51v-768v-205h-716zM563 -77v103h-102v-103h102zM154 845v51h716v-51h-716z" />
    <glyph glyph-name="uniE605" unicode="&#xe605;" horiz-adv-x="1283" 
d="M0 -128v1024h1282v-1024h-1282zM1218 -64v896h-1154v-896h1154zM193 50v64v193v13h896v-64v-142v-64h-896zM1025 114v142h-768v-142h768zM193 447v37v219h384h64v-192h-64v128h-320v-128h384v-64h-448zM705 447v64h384v-64h-384zM705 639v64h384v-64h-384z" />
    <glyph glyph-name="uniE606" unicode="&#xe606;" 
d="M0 -128v1024h1024v-1024h-1024zM973 -77v922h-922v-922h922zM426 64v329h-68v114h68v68q0 72 34.5 109.5t113.5 37.5h91v-113h-57q-29 0 -37 -10t-8 -36v-56h103l-13 -114h-90v-329h-137z" />
    <glyph glyph-name="uniE607" unicode="&#xe607;" 
d="M0 35v698q0 67 48 115t115 48h698q67 0 115 -48t48 -115v-698q0 -67 -48 -115t-115 -48h-698q-67 0 -115 48t-48 115zM973 35v698q0 46 -33 79t-79 33h-698q-46 0 -79 -33t-33 -79v-698q0 -46 33 -79t79 -33h698q46 0 79 33t33 79zM271 197q-51 65 -61.5 145.5t19.5 156
t95.5 126.5t146 61.5t156 -19.5t126.5 -95.5t61.5 -146t-19.5 -156t-95.5 -126t-146 -61.5t-156 19.5t-126.5 95.5zM668 183.5q83 64.5 96 169t-51.5 187.5t-169 96t-187.5 -51.5t-96 -169t51.5 -187.5t169 -96t187.5 51.5zM776.5 664.5q-11.5 17.5 -7.5 38.5t22 32.5
t38.5 7.5t32.5 -21.5t7.5 -38.5t-22 -32.5t-38.5 -7.5t-32.5 21.5z" />
    <glyph glyph-name="uniE608" unicode="&#xe608;" 
d="M150 22q-74 74 -112 169.5t-38 192.5t38 192.5t112 169.5t169.5 112t192.5 38t192.5 -38t169.5 -112t112 -169.5t38 -192.5t-38 -192.5t-112 -169.5q-98 -98 -230 -133t-264 0t-230 133zM838 58q66 66 100.5 152.5t34.5 173.5t-34.5 173.5t-100.5 152.5t-152.5 100.5
t-173.5 34.5t-173.5 -34.5t-152.5 -100.5t-100.5 -152.5t-34.5 -173.5t34.5 -173.5t100.5 -152.5t152.5 -100.5t173.5 -34.5t173.5 34.5t152.5 100.5zM434 203l-205 205q-11 11 -11 27t11 27.5t27 11.5t27 -12l178 -177l280 280q11 11 27 11t27 -11t11 -27t-11 -27
l-307 -308q-11 -11 -27 -11t-27 11z" />
    <glyph glyph-name="uniE609" unicode="&#xe609;" 
d="M150 22q-74 74 -112 169.5t-38 192.5t38 192.5t112 169.5t169.5 112t192.5 38t192.5 -38t169.5 -112t112 -169.5t38 -192.5t-38 -192.5t-112 -169.5q-98 -98 -230 -133t-264 0t-230 133zM838 58q66 66 100.5 152.5t34.5 173.5t-34.5 173.5t-100.5 152.5t-152.5 100.5
t-173.5 34.5t-173.5 -34.5t-152.5 -100.5t-100.5 -152.5t-34.5 -173.5t34.5 -173.5t100.5 -152.5t152.5 -100.5t173.5 -34.5t173.5 34.5t152.5 100.5zM478 120v442q-16 -15 -52 -34t-68 -27v64q41 11 88 36t72 47h24v-528h-64z" />
    <glyph glyph-name="uniE60A" unicode="&#xe60a;" 
d="M150 22q-74 74 -112 169.5t-38 192.5t38 192.5t112 169.5t169.5 112t192.5 38t192.5 -38t169.5 -112t112 -169.5t38 -192.5t-38 -192.5t-112 -169.5q-98 -98 -230 -133t-264 0t-230 133zM838 58q66 66 100.5 152.5t34.5 173.5t-34.5 173.5t-100.5 152.5t-152.5 100.5
t-173.5 34.5t-173.5 -34.5t-152.5 -100.5t-100.5 -152.5t-34.5 -173.5t34.5 -173.5t100.5 -152.5t152.5 -100.5t173.5 -34.5t173.5 34.5t152.5 100.5zM350 122v25q0 45 12 76t40 61q28 29 87 71q61 42 83 74t22 74q0 41 -26 65t-72 24q-32 0 -64.5 -16.5t-60.5 -46.5v63
q25 26 57 40.5t76 14.5q70 0 112.5 -37.5t42.5 -101.5q0 -57 -26 -99t-90 -85q-64 -45 -86 -64q-22 -20 -31 -37q-8 -18 -8 -43h256v-58h-324z" />
    <glyph glyph-name="uniE60B" unicode="&#xe60b;" 
d="M150 22q-74 74 -112 169.5t-38 192.5t38 192.5t112 169.5t169.5 112t192.5 38t192.5 -38t169.5 -112t112 -169.5t38 -192.5t-38 -192.5t-112 -169.5q-98 -98 -230 -133t-264 0t-230 133zM838 58q66 66 100.5 152.5t34.5 173.5t-34.5 173.5t-100.5 152.5t-152.5 100.5
t-173.5 34.5t-173.5 -34.5t-152.5 -100.5t-100.5 -152.5t-34.5 -173.5t34.5 -173.5t100.5 -152.5t152.5 -100.5t173.5 -34.5t173.5 34.5t152.5 100.5zM358 140v68q53 -41 119 -41q54 0 85 26t31 70q0 98 -140 98h-43v54h41q124 0 124 92q0 85 -95 85q-54 0 -102 -36v61
q50 30 118 30q66 0 106 -34.5t40 -89.5q0 -102 -103 -131v-1q56 -6 88.5 -39.5t32.5 -83.5q0 -70 -50.5 -112.5t-133.5 -42.5q-73 0 -118 27z" />
    <glyph glyph-name="uniE60C" unicode="&#xe60c;" horiz-adv-x="1490" 
d="M466 -128v171h1023v-171h-1023zM295 192l-295 171l295 171v-342zM466 299v170h1024v-170h-1024zM466 725v171h1023v-171h-1023z" />
    <glyph glyph-name="uniE60D" unicode="&#xe60d;" horiz-adv-x="1490" 
d="M0 -128v171h1024v-171h-1024zM1194 192v342l295 -171zM0 299v170h1024v-170h-1024zM0 725v171h1024v-171h-1024z" />
    <glyph glyph-name="uniE60E" unicode="&#xe60e;" 
d="M150 22q-74 74 -112 169.5t-38 192.5t38 192.5t112 169.5t169.5 112t192.5 38t192.5 -38t169.5 -112t112 -169.5t38 -192.5t-38 -192.5t-112 -169.5q-98 -98 -230 -133t-264 0t-230 133zM838 58q66 66 100.5 152.5t34.5 173.5t-34.5 173.5t-100.5 152.5t-152.5 100.5
t-173.5 34.5t-173.5 -34.5t-152.5 -100.5t-100.5 -152.5t-34.5 -173.5t34.5 -173.5t100.5 -152.5t152.5 -100.5t173.5 -34.5t173.5 34.5t152.5 100.5zM333 384q0 74 52.5 126.5t126.5 52.5t126.5 -52.5t52.5 -126.5t-52.5 -126.5t-126.5 -52.5t-126.5 52.5t-52.5 126.5z
M640 384q0 53 -37.5 90.5t-90.5 37.5t-90.5 -37.5t-37.5 -90.5t37.5 -90.5t90.5 -37.5t90.5 37.5t37.5 90.5z" />
    <glyph glyph-name="uniE60F" unicode="&#xe60f;" 
d="M150 22q-74 74 -112 169.5t-38 192.5t38 192.5t112 169.5t169.5 112t192.5 38t192.5 -38t169.5 -112t112 -169.5t38 -192.5t-38 -192.5t-112 -169.5q-98 -98 -230 -133t-264 0t-230 133zM838 58q66 66 100.5 152.5t34.5 173.5t-34.5 173.5t-100.5 152.5t-152.5 100.5
t-173.5 34.5t-173.5 -34.5t-152.5 -100.5t-100.5 -152.5t-34.5 -173.5t34.5 -173.5t100.5 -152.5t152.5 -100.5t173.5 -34.5t173.5 34.5t152.5 100.5zM256 155v410h51v-410h-51zM563 155v410h51v-410h-51zM410 258v204h51v-204h-51zM717 258v204h51v-204h-51z" />
    <glyph glyph-name="uniE610" unicode="&#xe610;" 
d="M150 22q-74 74 -112 169.5t-38 192.5t38 192.5t112 169.5t169.5 112t192.5 38t192.5 -38t169.5 -112t112 -169.5t38 -192.5t-38 -192.5t-112 -169.5q-98 -98 -230 -133t-264 0t-230 133zM838 58q66 66 100.5 152.5t34.5 173.5t-34.5 173.5t-100.5 152.5t-152.5 100.5
t-173.5 34.5t-173.5 -34.5t-152.5 -100.5t-100.5 -152.5t-34.5 -173.5t34.5 -173.5t100.5 -152.5t152.5 -100.5t173.5 -34.5t173.5 34.5t152.5 100.5zM358 155v410h52v-410h-52zM614 155v410h52v-410h-52z" />
    <glyph glyph-name="uniE611" unicode="&#xe611;" horiz-adv-x="1025" 
d="M0 384q0 104 40.5 199t109 163.5t163.5 109t199 40.5t199 -40.5t163.5 -109t109 -163.5t40.5 -199t-40.5 -199t-109 -163.5t-163.5 -109t-199 -40.5t-199 40.5t-163.5 109t-109 163.5t-40.5 199zM819 41l-650 650q-56 -62 -87 -141t-31 -166q0 -94 36.5 -179t98.5 -147
t147 -98.5t179 -36.5q87 0 166 31t141 87zM973 384q0 94 -36.5 179t-98.5 147t-147 98.5t-179 36.5q-87 0 -166 -31t-141 -87l650 -650q56 62 87 141t31 166z" />
    <glyph glyph-name="uniE612" unicode="&#xe612;" horiz-adv-x="1064" 
d="M916 -128l-701 700l148 148l700 -700zM916 -54l74 74l-480 479l-73 -74zM196 91l-73 114l-123 56l114 73l56 123l73 -113l123 -57l-114 -73zM189 199l22 51l47 30l-50 23l-30 46l-23 -50l-47 -30l51 -23zM400 462l74 74l-111 110l-74 -74zM689 546l-74 88l-110 34l88 74
l34 110l74 -88l110 -34l-88 -74zM129 573l-37 90l-79 56l90 37l56 79l37 -90l79 -56l-90 -36zM668 653l10 33l27 23l-34 10l-22 27l-11 -34l-26 -22l33 -10zM139 665l17 24l28 11l-24 17l-11 27l-17 -24l-28 -11l24 -17zM460 726l-34 53l-57 26l53 34l26 57l34 -53l57 -26
l-53 -34z" />
    <glyph glyph-name="uniE613" unicode="&#xe613;" horiz-adv-x="1025" 
d="M0 -128v740v56v228h1024v-1024h-1024zM967 -71v683h-910v-683h910zM171 107l140 365h52l150 -365h-55l-43 111h-153l-40 -111h-51zM552 107v365h125q43 0 65 -5q32 -7 54 -26q29 -24 43 -62t14 -87q0 -42 -9.5 -74t-24.5 -53t-33.5 -33t-43.5 -19q-26 -6 -59 -6h-131z
M734.5 157q20.5 7 32.5 19q17 17 27 46t10 71q0 57 -19 87.5t-46 41.5q-19 7 -62 7h-77v-279h78q36 0 56.5 7zM400 257l-38 101q-18 47 -26 76q-7 -35 -19 -70l-41 -107h124zM967 668v171h-910v-171h910z" />
    <glyph glyph-name="uniE614" unicode="&#xe614;" horiz-adv-x="1485" 
d="M10 369l-10 19l10 19q86 164 208 276.5t255.5 163.5t278.5 48.5t276.5 -58.5t249 -168.5t197.5 -270.5l9 -18l-9 -19q-80 -158 -198 -269.5t-249.5 -165t-276 -54t-278 52.5t-255.5 167t-208 277zM1373 345l19 35l-19 35q-74 127 -176 217t-213.5 134.5t-233 47
t-234.5 -38.5t-218.5 -130.5t-183.5 -220.5l-21 -36q77 -140 183 -238.5t220.5 -145.5t239 -49.5t238.5 39.5t218.5 132t180.5 219zM568 210q-72 72 -72 174t72 174t174 72t174 -72t72 -174t-72 -174t-174 -72t-174 72zM858 268q48 48 48 116t-48 116t-116 48t-116 -48
t-48 -116t48 -116t116 -48t116 48zM93 388q-7 13 -10 19z" />
    <glyph glyph-name="uniE615" unicode="&#xe615;" 
d="M256 -128v768h-128l192 256l192 -256h-128v-768h-128zM704 -128l-192 256h128v768h128v-768h128z" />
    <glyph glyph-name="uniE616" unicode="&#xe616;" 
d="M451 -76q-23 47 -25 87.5t8 66t32 57.5q18 26 30.5 55.5t16.5 45.5l4 17q1 -2 3 -5t7 -14t7.5 -22.5t4.5 -29.5t-3 -35q38 42 52 103t6 97q63 -44 101 -117.5t40 -152.5t-33 -153q80 45 128 99.5t61.5 106t8.5 105.5t-25 98t-45.5 83t-46.5 62t-34 32q14 -26 11.5 -67.5
t-26.5 -62.5q-16 61 -42.5 111t-53 77.5t-51 46t-39.5 24.5l-15 6q20 -137 -138 -330q-2 40 -7.5 65t-21.5 54q-3 -44 -40.5 -119.5t-44.5 -111.5q-18 -86 20 -151t150 -128z" />
    <glyph glyph-name="uniE617" unicode="&#xe617;" 
d="M645 -124l-294 187q-14 8 -13 25v458v8l-257 297q-7 8 -6.5 19.5t9.5 18.5q9 8 21 7h816q11 1 19.5 -6.5t9 -19t-6.5 -19.5l-255 -294v-11h-1v-641q2 -11 -4 -20q-6 -10 -17 -12.5t-21 3.5zM629 -49v595h-233v-447zM656 605l203 233h-694l202 -233h289z" />
    <glyph glyph-name="uniE618" unicode="&#xe618;" 
d="M120 197q-79 78 -107 183.5t0 211t107 184.5q59 59 135.5 89.5t154 30.5t154 -30.5t135.5 -89.5t90 -135.5t31 -154t-31 -154t-90 -135.5t-135.5 -90t-154 -31t-154 31t-135.5 90zM667 229q70 70 95 163.5t0 187.5t-95 164q-52 52 -120 79.5t-137 27.5t-137.5 -27.5
t-120.5 -79.5t-79.5 -120.5t-27.5 -137.5t27.5 -137t79.5 -120t120.5 -79.5t137.5 -27.5t137 27.5t120 79.5zM356 410v20q0 35 13 58.5t46 48.5q39 30 50 46.5t11 39.5q0 26 -18 40.5t-52 14.5q-31 0 -58 -9q-27 -8 -51 -20l-28 56q66 36 142 36q64 0 101.5 -30.5
t37.5 -84.5q0 -24 -7 -42.5t-22 -35.5t-50 -44q-30 -23 -40.5 -38.5t-10.5 -41.5v-14h-64zM343 308q0 48 48 48q23 0 35.5 -12.5t12.5 -35.5q0 -22 -12.5 -35.5t-35.5 -13.5t-35.5 13t-12.5 36z" />
    <glyph glyph-name="uniE619" unicode="&#xe619;" 
d="M120 197q-79 78 -107 183.5t0 211t107 184.5q59 59 135.5 89.5t154 30.5t154 -30.5t135.5 -89.5t90 -135.5t31 -154t-31 -154t-90 -135.5t-135.5 -90t-154 -31t-154 31t-135.5 90zM426.5 272.5q12.5 13.5 12.5 35.5q0 23 -12.5 35.5t-35.5 12.5q-48 0 -48 -48
q0 -23 12.5 -36t35.5 -13t35.5 13.5zM420 410v14q0 26 10.5 41.5t40.5 38.5q35 27 50 44t22 35.5t7 42.5q0 54 -37.5 84.5t-101.5 30.5q-76 0 -142 -36l28 -56q24 12 51 20q27 9 58 9q34 0 52 -14.5t18 -40.5q0 -23 -11 -39.5t-50 -46.5q-33 -25 -46 -48.5t-13 -58.5v-20h64
z" />
    <glyph glyph-name="uniE61A" unicode="&#xe61a;" 
d="M120 197q-79 78 -107 183.5t0 211t107 184.5q59 59 135.5 89.5t154 30.5t154 -30.5t135.5 -89.5t90 -135.5t31 -154t-31 -154t-90 -135.5t-135.5 -90t-154 -31t-154 31t-135.5 90zM667 229q70 70 95 163.5t0 187.5t-95 164q-52 52 -120 79.5t-137 27.5t-137.5 -27.5
t-120.5 -79.5t-79.5 -120.5t-27.5 -137.5t27.5 -137t79.5 -120t120.5 -79.5t137.5 -27.5t137 27.5t120 79.5zM364 396h91v363h-91v-363zM364 213h91v91h-91v-91z" />
    <glyph glyph-name="uniE61B" unicode="&#xe61b;" 
d="M120 197q-59 59 -89.5 135.5t-30.5 154t30.5 154t89.5 135.5q79 79 184.5 107t211 0t183.5 -107q59 -59 90 -135.5t31 -154t-31 -154t-90 -135.5t-135.5 -90t-154 -31t-154 31t-135.5 90zM667 229q52 52 79.5 120t27.5 137t-27.5 137.5t-79.5 120.5t-120 79.5t-137 27.5
t-137.5 -27.5t-120.5 -79.5t-79.5 -120.5t-27.5 -137.5t27.5 -137t79.5 -120t120.5 -79.5t137.5 -27.5t137 27.5t120 79.5zM484 712q5 -29 -4 -49q-11 -24 -35 -24q-14 0 -25.5 12t-13.5 26q-5 28 7.5 50t32.5 22q14 0 25 -10t13 -27zM472 586q4 -23 -42.5 -138.5
t-39.5 -158.5q4 -22 18 -22q25 0 33.5 26t20.5 26q13 0 17 -23q5 -31 -19 -51.5t-59 -20.5q-28 0 -47.5 21.5t-24.5 53.5q-8 50 19.5 139.5t25.5 99.5q-1 7 -17 9.5t-18 12.5q-4 23 47 23q46 0 60 7l13 7q11 0 13 -11z" />
    <glyph glyph-name="uniE61C" unicode="&#xe61c;" horiz-adv-x="1025" 
d="M120 197q-59 59 -89.5 135.5t-30.5 154t30.5 154t89.5 135.5t135.5 89.5t154 30.5t154 -30.5t135.5 -89.5t90 -135.5t31 -154t-31 -154t-90 -135.5t-135.5 -90t-154 -31t-154 31t-135.5 90zM460 244.5q24 20.5 19 51.5q-2 11 -6.5 17t-10.5 6q-12 0 -20.5 -26t-33.5 -26
q-14 0 -18 22q-7 43 39.5 158.5t42.5 138.5q-2 11 -13 11l-13 -7q-14 -7 -60 -7q-51 0 -47 -23q2 -10 18 -12.5t17 -9.5q2 -10 -25.5 -99.5t-19.5 -139.5q5 -32 24.5 -53.5t47.5 -21.5q35 0 59 20.5zM480 663q9 20 4 49q-2 17 -13 27t-25 10q-20 0 -32.5 -22t-7.5 -50
q2 -14 13.5 -26t25.5 -12q24 0 35 24z" />
    <glyph glyph-name="uniE61D" unicode="&#xe61d;" horiz-adv-x="1025" 
d="M152 497l193 -193l32 32l-193 194zM313 337l32 -33l322 322l-32 32zM120 197q-59 59 -89.5 135.5t-30.5 154t30.5 154t89.5 135.5t135.5 89.5t154 30.5t154 -30.5t135.5 -89.5t90 -135.5t31 -154t-31 -154t-90 -135.5t-135.5 -90t-154 -31t-154 31t-135.5 90zM667 229
q52 52 79.5 120t27.5 137t-27.5 137.5t-79.5 120.5q-70 70 -163.5 94.5t-187.5 0t-164 -94.5q-52 -52 -79.5 -120.5t-27.5 -137.5t27.5 -137t79.5 -120q70 -70 164 -95t187.5 0t163.5 95z" />
    <glyph glyph-name="uniE61E" unicode="&#xe61e;" 
d="M120 197q-79 78 -107 183.5t0 211t107 184.5q59 59 135.5 89.5t154 30.5t154 -30.5t135.5 -89.5t90 -135.5t31 -154t-31 -154t-90 -135.5t-135.5 -90t-154 -31t-154 31t-135.5 90zM345 304l32 32l290 290l-32 32l-290 -289l-161 161l-32 -33z" />
    <glyph glyph-name="uniE61F" unicode="&#xe61f;" 
d="M200 315l33 -32l386 386l-32 32zM587 283l32 32l-386 386l-33 -32zM120 197q-79 78 -107 183.5t0 211t107 184.5q59 59 135.5 89.5t154 30.5t154 -30.5t135.5 -89.5t90 -135.5t31 -154t-31 -154t-90 -135.5t-135.5 -90t-154 -31t-154 31t-135.5 90zM667 229
q70 70 95 163.5t0 187.5t-95 164q-52 52 -120 79.5t-137 27.5t-137.5 -27.5t-120.5 -79.5t-79.5 -120.5t-27.5 -137.5t27.5 -137t79.5 -120t120.5 -79.5t137.5 -27.5t137 27.5t120 79.5z" />
    <glyph glyph-name="uniE620" unicode="&#xe620;" 
d="M120 197q-79 78 -107 183.5t0 211t107 184.5q59 59 135.5 89.5t154 30.5t154 -30.5t135.5 -89.5t90 -135.5t31 -154t-31 -154t-90 -135.5t-135.5 -90t-154 -31t-154 31t-135.5 90zM233 283l177 177l177 -177l32 32l-177 177l177 177l-32 32l-177 -177l-177 177l-33 -32
l177 -177l-177 -177z" />
    <glyph glyph-name="uniE621" unicode="&#xe621;" horiz-adv-x="1025" 
d="M120 197q-59 59 -89.5 135.5t-30.5 154t30.5 154t89.5 135.5t135.5 89.5t154 30.5t154 -30.5t135.5 -89.5t90 -135.5t31 -154t-31 -154t-90 -135.5t-135.5 -90t-154 -31t-154 31t-135.5 90zM455 213v91h-91v-91h91zM455 396v363h-91v-363h91z" />
    <glyph glyph-name="uniE622" unicode="&#xe622;" 
d="M0 486.5q0 111.5 55 205.5t149 149t206 55q143 0 255 -90l2 2l65 -64l-2 -2q89 -112 89 -256q0 -111 -55 -205t-149 -149t-205.5 -55t-205.5 55t-149 149t-55 205.5zM774 486q0 125 -77 223l-510 -510q98 -77 223 -77q98 0 182 49t133 133t49 182zM122 263l511 511
q-99 76 -223 76q-99 0 -183 -48.5t-132.5 -132.5t-48.5 -183q0 -124 76 -223z" />
    <glyph glyph-name="uniE623" unicode="&#xe623;" 
d="M158 164l574 574q87 -111 87 -252q0 -111 -55 -205t-149 -149t-205 -55q-141 0 -252 87zM0 486q0 112 55 206t149 149t206 55q141 0 252 -87l-575 -575q-87 111 -87 252z" />
    <glyph glyph-name="uniE624" unicode="&#xe624;" horiz-adv-x="1062" 
d="M121 77v364h-72v6q-9 -7 -20.5 -6t-19.5 9q-9 9 -9 21.5t9 21.5l394 394q9 9 21.5 9t21.5 -9l395 -394q8 -9 8 -21.5t-8 -21.5q-9 -8 -20 -9t-20 6v-6h-73v-303v-61v0h-61h-121h-61v243h-121v-243h-60h-122h-61zM304 138v242h242v-60v-182h121v364h61h18l-321 321
l-321 -321h17h61v0v-61v-303h122z" />
    <glyph glyph-name="uniE625" unicode="&#xe625;" horiz-adv-x="1062" 
d="M425 866l-395 -395zM425 866l394 -395zM303 380v-303h61v303h-61zM121 502v-425h61v425h-61zM667 502v-425h61v425h-61zM485 380v-303h61v303h-61zM309 320h237v60h-237v-60zM127 77h237v61h-237v-61zM491 77h237v61h-237v-61zM667 502v-61h134v61h-134zM48 502v-61h134
v61h-134zM30 471h122h667l-394 395zM151 501v-424h178v424h-178zM533 501v-424h178v424h-178zM303 553v-224h304v224h-304z" />
    <glyph glyph-name="uniE626" unicode="&#xe626;" 
d="M178 77v710h54h382v109h55v-109h54v-55h-54h-55h-382v-601h492v-54h-492h-54zM724 77v710h54v-710h-54zM68 186v710v0h546v-55h-491v-600h54v-55h-54h-55zM287 241v54h382v-54h-382zM287 350v55h382v-55h-382zM287 459v55h382v-55h-382zM287 568v55h273v-55h-273z" />
    <glyph glyph-name="uniE627" unicode="&#xe627;" 
d="M178 77v710h54h382v54h-491v-600h54v-55h-54h-55v710h55v-1h491v1h55v-109h54h55v-710h-82h-464h-54zM669 241v54h-383v-54h383zM669 350v55h-383v-55h383zM669 459v55h-383v-55h383zM560 568v55h-273v-55h273z" />
    <glyph glyph-name="uniE628" unicode="&#xe628;" 
d="M120 197q-79 78 -107 183.5t0 211t107 184.5t184.5 107t211 0t183.5 -107q59 -59 90 -135.5t31 -154t-31 -154t-90 -135.5t-135.5 -90t-154 -31t-154 31t-135.5 90zM667.5 228.5q52.5 52.5 79.5 120.5t27 137t-27 137.5t-79.5 120.5t-120.5 79.5t-137 27.5t-137.5 -27.5
t-120.5 -79.5t-79.5 -120.5t-27.5 -137.5t27.5 -137t79.5 -120.5t120.5 -79.5t137.5 -27t137 27t120.5 79.5zM95 276q0 10 8 17q26 22 58 32.5t70.5 17t61.5 15.5l18 8v55l-6 5q-10 14 -18 41l-5 19l-5 3q-19 18 -23.5 54t5.5 51l4 5l-1 29q3 63 28 101q39 57 129 57
q78 1 114 -57q22 -38 26 -100l1 -31l6 -8q10 -22 4 -49.5t-23 -44.5l-4 -3l-2 -11q-5 -23 -19 -45l-10 -14v-51l17 -11q28 -14 84.5 -27t88.5 -32q12 -7 19 -16q10 -14 6 -30q-4 -19 -32 -44q-2 -2 -54 -46l-2 -1q-49 -33 -95.5 -46.5t-128.5 -24.5h-4q-55 4 -108.5 17.5
t-100 35t-75.5 55.5t-32 74zM615 199l15 12q28 24 37 32q14 12 18 20l-4 3q-24 14 -59.5 22.5t-73 20t-69.5 35.5q-8 6 -8 17v69q0 7 4 12q26 33 28 65q0 10 8 16l6 3l4 3q6 7 8.5 23t-1.5 20l-7 8q-3 5 -2 10q1 79 -22 117t-77 37q-69 0 -95 -39q-25 -36 -20 -114
q0 -8 -5 -15l-5 -4l-1 -3q-2 -13 2.5 -30.5t12.5 -21.5q9 -4 11 -14q9 -37 18 -51l4 -5q11 -6 11 -17v-77q0 -12 -11 -18q-40 -23 -103 -34.5t-87 -24.5l-13 -9v-2q11 -43 72.5 -76.5t148.5 -46.5l52 -6l31 4q96 15 150 46z" />
    <glyph glyph-name="uniE629" unicode="&#xe629;" 
d="M120 197q-79 78 -107 183.5t0 211t107 184.5t184.5 107t211 0t183.5 -107q59 -59 90 -135.5t31 -154t-31 -154t-90 -135.5t-135.5 -90t-154 -31t-154 31t-135.5 90zM667.5 228.5q52.5 52.5 79.5 120.5t27 137t-27 137.5t-79.5 120.5t-120.5 79.5t-137 27.5t-137.5 -27.5
t-120.5 -79.5t-79.5 -120.5t-27.5 -137.5t27.5 -137t79.5 -120.5t120.5 -79.5t137.5 -27t137 27t120.5 79.5zM136 213q-74 74 -100.5 173.5t0 199.5t100.5 174q56 56 128 85t145.5 29t146 -29t127.5 -85q75 -74 101 -174t0 -199.5t-101 -173.5q-55 -56 -127.5 -85t-146 -29
t-145.5 29t-128 85zM666 230q14 15 27 31q-1 1 -2 1q-27 17 -93.5 33t-105.5 47v72q30 40 31 80q19 6 26.5 40.5t-10.5 47.5q2 89 -25.5 136.5t-93.5 46.5q-80 0 -110.5 -47.5t-25.5 -135.5q-9 -2 -11 -22t5 -43.5t22 -30.5q14 -63 32 -72v-80q-37 -22 -106 -35.5
t-100 -36.5q13 -17 28 -32q52 -52 119.5 -79t136 -27t136.5 27t120 79z" />
    <glyph glyph-name="uniE62A" unicode="&#xe62a;" horiz-adv-x="1025" 
d="M563 435q-54 0 -103 29l-9 -9l-78 -77q-14 -15 -14 -36v-60h-52q-21 0 -36 -15t-15 -37v-51h-60q-21 0 -36 -15l-36 -36h-73v73l299 298l37 38q-28 49 -28 103q0 85 59.5 145t144.5 60t145 -60t60 -145t-60 -145t-145 -60zM563 896q-106 0 -181 -75t-75 -181
q0 -46 19 -93l-311 -311q-15 -14 -15 -31v-77q0 -21 15.5 -36t35.5 -15h77q17 0 31 14l37 37h60q21 0 36 15t15 36v51h52q21 0 36 15t15 37v60l60 60q47 -18 93 -18q106 0 181 75t75 181t-75 181t-181 75zM569 714q28 0 48 -20t20 -48.5t-20 -48.5t-48 -20t-48 20t-20 48.5
t20 48.5t48 20z" />
    <glyph glyph-name="uniE62B" unicode="&#xe62b;" 
d="M0 77v151h51v-100h717v100h51v-100v-51h-819zM410 166l-268 320h165v359v51h205v0v-410l165 1zM410 246l158 189h-107v51v359h-103v-393v-17h-106z" />
    <glyph glyph-name="uniE62C" unicode="&#xe62c;" 
d="M0 77v151h51v-100h717v100h51v-100v-51h-819zM410 166l-268 320h165v410v0h205v0v-410l165 1z" />
    <glyph glyph-name="uniE62D" unicode="&#xe62d;" 
d="M0 766v-43h819v43h-819zM86 120v-43h604v43h-604zM690 77h43v661h-43v-661zM86 77h44v661h-44v-661zM560 723h43v173h-43v-173zM216 723h43v173h-43v-173zM387 207h43v430h-43v-430zM561 551v-259h43v259h-43zM216 551v-259h43v259h-43zM216 896v-43h388v43h-388z" />
    <glyph glyph-name="uniE62E" unicode="&#xe62e;" 
d="M0 723v43h819v-43h-819zM87 77v43h603v-43h-603zM87 77v661h646v-661h-646zM430 207v430h-43v-430h43zM259 292v259h-43v-259h43zM604 292v259h-43v-259h43zM87 77v660h43v-660h-43zM560 723v173h43v-173h-43zM216 723v173h43v-173h-43zM216 738v158h388v-158h-388z" />
    <glyph glyph-name="uniE62F" unicode="&#xe62f;" horiz-adv-x="1152" 
d="M0 845v-768h51v768h-51zM870 845v-768h52v768h-52zM51 77h819v51h-819v-51zM0 794h205v51h-205v-51zM717 794h153v51h-153v-51zM358 794h205v51h-205v-51zM256 896v-154h51v154h-51zM614 896v-154h52v154h-52zM0 640h870v51h-870v-51zM205 538v-103h51v103h-51zM358 538
v-103h52v103h-52zM512 538v-103h51v103h-51zM666 538v-103h51v103h-51zM205 333v-103h51v103h-51zM358 333v-103h52v103h-52zM512 333v-103h51v103h-51zM666 333v-103h51v103h-51z" />
    <glyph glyph-name="uniE630" unicode="&#xe630;" horiz-adv-x="1161" 
d="M0 77v764v1h218v-219h164v219h164v-219h164v219h218v-765h-54h-819h-55zM273 295v109h-54v-109h54zM382 295v109h-54v-109h54zM492 295v109h-55v-109h55zM601 295v109h-55v-109h55zM710 295v109h-54v-109h54zM273 459v109h-54v-109h54zM382 459v109h-54v-109h54zM491 459
v109h-54v-109h54zM601 459v109h-55v-109h55zM710 459v109h-55v-109h55zM273 678v218h55v-218h-55zM601 678v218h54v-218h-54z" />
    <glyph glyph-name="uniE631" unicode="&#xe631;" horiz-adv-x="1032" 
d="M0 580.5q0 130.5 92.5 223t223 92.5t223 -92.5t92.5 -223t-92.5 -223t-223 -92.5t-223 92.5t-92.5 223zM574 580.5q0 106.5 -76 182.5t-182.5 76t-182.5 -76t-76 -182.5t76 -182.5t182.5 -76t182.5 76t76 182.5zM785 77l-282 281q29 21 43 38l279 -279z" />
    <glyph glyph-name="uniE632" unicode="&#xe632;" horiz-adv-x="1032" 
d="M21 581q0 122 86 208t208 86t208.5 -86t86.5 -208t-86.5 -208.5t-208.5 -86.5t-208 86.5t-86 208.5zM0 580.5q0 130.5 92.5 223t223 92.5t223 -92.5t92.5 -223t-92.5 -223t-223 -92.5t-223 92.5t-92.5 223zM574 580.5q0 106.5 -76 182.5t-182.5 76t-182.5 -76t-76 -182.5
t76 -182.5t182.5 -76t182.5 76t76 182.5zM785 77l-282 281q29 21 43 38l279 -279z" />
    <glyph glyph-name="uniE633" unicode="&#xe633;" horiz-adv-x="1089" 
d="M816 698q-21 -19 -62 -58q-153 143 -157 146q11 10 31.5 29.5t30.5 28.5q52 -48 157 -146zM843 747q-41 37 -121 112q-1 1 -12 11.5t-15 13.5t-15 7.5t-24 4.5q-3 -1 -8.5 -1.5t-7.5 -1.5q-4 -2 -9.5 -5.5t-7.5 -4.5q-53 -49 -104 -97q72 -67 235 -219q25 24 82 76
q2 2 8 7t8.5 8t7 8t7 10t4.5 11v6v6q0 6 -1.5 11.5t-2.5 9t-5.5 8.5t-5.5 6l-7 7zM195 129h-139v129q307 311 409 415l3 3q26 -24 78 -72.5t79 -73.5q-55 -50 -215.5 -200.5t-214.5 -200.5zM663 568q-52 47 -78 72l-79 74l-8 8q-5 5 -8.5 8t-9.5 6t-14 2q-1 0 -5.5 -1
t-6.5 -2q-6 -4 -17 -16l-10 -10l-11 -11l-55 -55q-43 -42 -180.5 -179t-180.5 -180v-144v-12v-14q0 -5 1 -11.5t3.5 -11t6 -7.5t9 -4.5t12.5 -2t12 -0.5h16h14h148q47 44 192.5 182t193.5 182q22 21 66 62l6 5q6 4 7.5 6.5t3.5 7.5t1 10q-1 6 -4.5 11.5t-7 9t-9.5 8.5t-8 7z
" />
    <glyph glyph-name="uniE634" unicode="&#xe634;" 
d="M0 77v262l262 -262h-262zM309 143l-253 252l356 356l253 -253zM721 555l-253 253l42 41l-1 1l46 46l1 -1l1 1l46 -46l-1 -1l161 -160l10 10l46 -46z" />
    <glyph glyph-name="uniE635" unicode="&#xe635;" 
d="M43 759v-682h68v682h-68zM589 759v-682h68v682h-68zM725 896v-683h69v683h-69zM179 896v-205h68v205h-68zM111 77h478v68h-478v-68zM111 691h478v69h-478v-69zM247 828h547v68h-547v-68zM657 213h137v68h-137v-68z" />
    <glyph glyph-name="uniE636" unicode="&#xe636;" 
d="M43 759v-682h68v682h-68zM589 759v-682h68v682h-68zM725 896v-683h69v683h-69zM179 896v-205h68v205h-68zM111 77h478v68h-478v-68zM111 77h478v683h-478v-683zM247 828h547v68h-547v-68zM657 213h137v68h-137v-68z" />
    <glyph glyph-name="uniE637" unicode="&#xe637;" horiz-adv-x="1283" 
d="M0 896v-819h51v819h-51zM0 845h1023v51h-1023v-51zM0 77h1023v51h-1023v-51zM975 896v-819h51v819h-51zM154 742v-52h359v52h-359zM154 588v-51h359v51h-359zM564 588v-51h307v51h-307zM564 742v-51h307v51h-307zM155 271v-52h716v52h-716zM154 566h52v154h-52v-154z
M154 271h52v153h-52v-153zM820 271h51v153h-51v-153zM155 435v-51h716v51h-716zM462 588h51v154h-51v-154z" />
    <glyph glyph-name="uniE638" unicode="&#xe638;" horiz-adv-x="1283" 
d="M0 77v819h1026v-819h-1026zM871 219v1v215h-716v-11h-1v-153h1v-52h716zM513 537v51h-307v102h256v-102h51v154h-51h-308v-176v-29h359zM871 537v51h-307v-51h307zM871 691v51h-307v-51h307z" />
    <glyph glyph-name="uniE639" unicode="&#xe639;" horiz-adv-x="1283" 
d="M0 77v819h1026v-819h-1026zM975 128v717h-924v-717h924zM334 237v249v250l204 -126l202 -124l-202 -123zM385 328l127 78l130 80l-130 80l-127 78v-158v-158z" />
    <glyph glyph-name="uniE63A" unicode="&#xe63a;" horiz-adv-x="1283" 
d="M0 77v819h51v-819h-51zM0 77v819h1023v-819h-1023zM359 283l166 102l166 101l-166 102l-166 102v-204v-203zM0 77v51h1023v-51h-1023zM975 77v819h51v-819h-51z" />
    <glyph glyph-name="uniE63B" unicode="&#xe63b;" horiz-adv-x="1278" 
d="M0 77v816h3v3h1019v-819h-1022zM1015 131h-47v40l-177 178l-134 -134q-7 -8 -17.5 -8t-18.5 8l-285 286l-282 -283v-87h-47h1008zM968 243v599h-914v-552l264 265q7 7 17.5 7t18.5 -7l285 -287l134 135q8 7 18.5 7t17.5 -7zM635 559.5q-22 22.5 -22 54t22 53.5t53.5 22
t54 -22t22.5 -53.5t-22.5 -54t-54 -22.5t-53.5 22.5z" />
    <glyph glyph-name="uniE63C" unicode="&#xe63c;" horiz-adv-x="1280" 
d="M0 77v819h1024v-819h-1024zM693 238q7 7 7.5 17t-6.5 17l-78 85l109 130l148 -152q7 -7 16.5 -7t16.5 7.5t7 17.5t-7 17l-165 170q-7 8 -17.5 7.5t-17.5 -8.5l-122 -146l-244 268q-7 7 -17 7.5t-17 -6.5l-188 -190q-7 -7 -7 -17t6.5 -17.5t16.5 -7.5t17 7l171 173
l338 -371q6 -8 16 -8t17 7zM603 617q21 21 21 51.5t-21 52t-50 21.5t-50 -21.5t-21 -52t21 -51.5t50 -21t50 21z" />
    <glyph glyph-name="uniE63D" unicode="&#xe63d;" horiz-adv-x="1161" 
d="M0 841v-764h55v764h-55zM874 841v-764h54v764h-54zM55 77h819v54h-819v-54zM0 787h218v54h-218v-54zM710 787h218v54h-218v-54zM382 787h164v54h-164v-54zM273 896v-164h55v164h-55zM601 896v-164h54v164h-54zM0 623h928v55h-928v-55zM219 514v-55h491v55h-491zM219 350
v-54h491v54h-491z" />
    <glyph glyph-name="uniE63E" unicode="&#xe63e;" 
d="M749 77h51v819h-51v-819zM783 77v51h-717v-51h717zM783 845v51h-717v-51h717zM237 77h51v819h-51v-819zM32 77h51v819h-51v-819z" />
    <glyph glyph-name="uniE63F" unicode="&#xe63f;" 
d="M211 82q-52 12 -77 41q-24 27 -17 61l5 12l1 7q1 8 6 16q7 13 25 25l7 4l-19 26l-3 4q-27 -29 -56 -27l-22 14q-14 28 -16.5 62.5t10.5 78t43 86.5l22 27l-1 6q-6 32 8 55l2 3l1 8q4 19 17 32l2 21q7 78 47 136t97 86t122 30q65 1 123.5 -24.5t102.5 -82.5t57 -137l3 -27
l11 -15q22 -37 14 -79l-2 -7l13 -18q85 -122 38 -239l-7 -9q-15 -14 -37 -5q-16 8 -35 29l-3 -7l-14 -25l9 -6q22 -15 31 -34q27 -53 -32 -104l-4 -3q-35 -24 -110 -24q-79 -1 -132 35l-7 5h-4q-6 -1 -12 -1l-13 1l9 5q-43 -33 -101.5 -43t-101.5 1zM382 166l17 6
q23 -2 39 0l21 -6q40 -35 114 -35q48 1 77 13l3 2l8 8q18 19 11 32q-8 17 -43 31l-9 42q24 27 46 88l49 2q4 -9 10 -18l11 -14l4 28q3 71 -65 157l-4 25q7 15 5 29.5t-6.5 22.5t-14.5 20l-5 15q-6 76 -42 130t-85.5 77.5t-106.5 22t-105 -27t-79.5 -79t-31.5 -126.5l-13 -23
q-7 -4 -6 -14l-7 -18q-8 -9 0 -36l-6 -25q-80 -89 -70 -171l2 -11l6 7q8 10 19 27l48 -11q1 -9 6 -19.5t9.5 -17t15.5 -22t17 -23.5l-11 -39q-29 -13 -37 -23l-1 -12q-7 -13 1 -23q14 -15 49 -23q35 -9 81.5 -1t78.5 33z" />
    <glyph glyph-name="uniE640" unicode="&#xe640;" horiz-adv-x="1317" 
d="M0 77v35v762v22h1053v-22v-762v-35h-1053zM995 135v643l-451 -337q-17 -13 -35 0l-451 335v-641h937zM527 501l450 337h-903z" />
    <glyph glyph-name="uniE641" unicode="&#xe641;" horiz-adv-x="1268" 
d="M0 77v819h1014v-819h-1014zM975 116v741h-936v-741h936zM99 165l-1 321q60 -74 111.5 -111t96 -41t87 8t95.5 31.5t109.5 34.5t140 11.5t178.5 -33.5l1 -221h-73h-82h-663zM209 561q-34 35 -33 83.5t35.5 82t83 33t82 -35.5t33 -83t-35.5 -82t-83 -33.5t-82 35.5z" />
    <glyph glyph-name="uniE642" unicode="&#xe642;" horiz-adv-x="1193" 
d="M784 77h-665v51v308h51v-308h614v261l-83 -83l-36 36l145 145l36 -36l-1 -1l109 -109l-36 -36l-83 83v-311h-51zM477 232v56q-45 1 -77 15q-35 15 -55 45.5t-21 69.5l48 4q3 -29 15.5 -47.5t38.5 -29.5q23 -10 51 -12v136q-2 1 -5.5 2t-4.5 1q-53 13 -74 24
q-28 14 -41.5 35.5t-13.5 48.5q0 29 16.5 54.5t48.5 38.5t71 13h2h1v56h51v-62q11 -3 22 -8q32 -14 50 -40q18 -27 19 -61l-49 -4q-4 37 -27 55q-6 6 -15 10v-123q24 -6 37 -12q33 -15 49 -39t16 -55t-17.5 -58t-50.5 -43q-16 -7 -34 -11v-59h-51zM537 342q22 8 33 23.5
t11 33.5t-10.5 31.5t-34.5 22.5q-2 1 -8 3v-117q4 1 9 3zM145 487l-145 144l36 37l83 -83v285v26h716v-26v-332h-51v307h-614v-260l83 83l36 -36l-109 -109h1zM477 522v119h-1q-46 0 -67.5 -17t-21.5 -41q0 -21 15 -34t75 -27z" />
    <glyph glyph-name="uniE643" unicode="&#xe643;" 
d="M57 77v478l69 -68l32 32h-1l97 97l-32 32l-74 -73v230h546v-273h45v296v23h-636v-23v-254l-46 45v277h728v-478l-37 36l1 1l-32 32l-129 -129l32 -32l74 74v-232h-546v273h-45v-273v-45h591h45v276l46 -45v-277h-728zM467 260v53q15 4 30 10q29 14 44.5 38t15.5 51.5
t-14 48.5t-44 35q-11 5 -32 11v109q7 -4 13 -8q20 -17 24 -50l43 4q-1 30 -16.5 54t-44.5 36q-9 4 -19 6v56h-46v-50h-1h-2q-34 0 -62.5 -11.5t-43 -34t-14.5 -48.5q0 -24 12 -43t36 -32q19 -10 67 -21q7 -2 8 -2v-121q-25 1 -45 10q-23 10 -34 26q-12 17 -15 42l-42 -3
q1 -35 18.5 -62t49.5 -41q28 -12 68 -13v-50h46zM467 355v104q4 -1 7 -2q21 -8 30.5 -20t9.5 -28t-10 -29.5t-29 -21.5q-4 -1 -8 -3zM355 542q-14 12 -14 31q0 21 19 36t60 15h1v-106q-53 13 -66 24z" />
    <glyph glyph-name="uniE644" unicode="&#xe644;" 
d="M426 80l-279 172q-2 2 -4 3h-5v10v8v494q-7 10 0 21q4 7 11.5 9t14.5 -2l273 -166l272 166q7 4 14.5 2t12.5 -9q6 -11 -1 -21v-512h-5q-2 -1 -4 -3l-279 -172q-11 -7 -21 0zM417 131v464l-240 146v-462zM456 131l240 149v461l-240 -146v-464zM426 687l-282 173
q-7 4 -9 12t2.5 15t12 8.5t14.5 -2.5l273 -166l272 166q7 4 14.5 2.5t12 -8.5t2.5 -15t-9 -12l-282 -173q-10 -6 -21 0z" />
    <glyph glyph-name="uniE645" unicode="&#xe645;" horiz-adv-x="1025" 
d="M273 77v54h109v110h-327h-55v0v54v492v54h382v55h55v-55h382v-600h-54h-328v-110h109v-54h-273zM765 295v492h-328h-55h-327v-492h710zM472 440l-196 196l-145 -193q-7 -9 -18 -11t-20 5t-10.5 18t4.5 20l164 219q8 10 20.5 11t20.5 -8l197 -196l145 193q6 9 17.5 10.5
t20.5 -5t10.5 -18t-5.5 -20.5l-164 -218q-7 -10 -19.5 -11t-21.5 8z" />
    <glyph glyph-name="uniE646" unicode="&#xe646;" 
d="M37 779v-702h58v702h-58zM739 779v-702h58v702h-58zM37 77h702v58h-702v-58zM37 721h702v58h-702v-58zM95 838h644v58h-644v-58zM271 311h292v58h-292v-58zM446 194v234h-58v-234h58zM400 387l-154 205q-6 8 -4.5 18.5t10 17t19 5t16.5 -10.5l154 -204q6 -9 4.5 -19.5
t-10 -17t-19 -5t-16.5 10.5zM397.5 381.5q-8.5 6.5 -10 17t5.5 18.5l153 205q7 9 17.5 10.5t19 -5t10 -17t-5.5 -18.5l-153 -205q-7 -9 -17.5 -10.5t-19 5z" />
    <glyph glyph-name="uniE647" unicode="&#xe647;" 
d="M430 119q-272 0 -276 206q-2 104 90 219q12 14 40 43q23 23 34 36t23 33.5t13 38.5q1 12 -6.5 24t-26.5 37q-35 44 -37 55q45 43 154 43q108 0 153 -43q-1 -11 -36 -56q-19 -24 -26.5 -36t-6.5 -23q1 -20 12.5 -41.5t22.5 -35.5t34 -39q22 -25 31 -36q90 -112 88 -218
q0 -17 -1 -28.5t-7 -35t-16 -40.5t-30.5 -38t-49.5 -34t-74 -22t-102 -9zM654 570q-10 13 -32 38q-19 21 -28.5 32t-19 27.5t-11.5 28.5q3 7 24 33q16 20 23.5 30.5t16 27t7.5 29.5t-12 24q-56 56 -184 56t-184 -56q-11 -11 -12 -23.5t7.5 -29t16 -27.5t22.5 -30
q21 -27 24 -34q-2 -16 -16.5 -34t-41.5 -46q-30 -31 -42 -46q-102 -126 -100 -246q2 -62 24.5 -108.5t55.5 -72t77.5 -41.5t82 -20.5t78.5 -4.5q316 0 322 248q2 122 -98 245zM450 420q-8 5 -12 7q-30 22 -33 39q-2 8 5 17q8 12 25 13q12 1 23 -3t15 -9q6 -6 14.5 -6.5
t15 5.5t6.5 14.5t-6 15.5q-18 20 -53 24v12q0 8 -6 14.5t-14.5 6.5t-14.5 -6.5t-6 -14.5v-16q-20 -8 -33 -25q-16 -23 -12 -49q6 -34 51 -66q3 -3 12 -8q31 -20 40 -32.5t2 -25.5q-8 -15 -27 -18q-26 -4 -47 17q-6 6 -14.5 6t-14.5 -6t-6 -14.5t6 -14.5q19 -19 43 -27v-35
q0 -8 6 -14.5t14.5 -6.5t14.5 6.5t6 14.5v33q39 6 56 39q7 14 8 27t-4 24.5t-10.5 20t-16.5 17.5t-17 13t-16 11z" />
    <glyph glyph-name="uniE648" unicode="&#xe648;" 
d="M112 324q-2 120 100 246q12 15 42 46q18 18 27.5 28.5t19.5 25.5t11 26q-3 7 -24 34q-15 19 -22.5 30t-16 27.5t-7.5 29t12 23.5q56 56 184 56t184 -56q11 -11 12 -24t-7.5 -29.5t-16 -27t-23.5 -30.5q-21 -26 -24 -33q2 -12 11.5 -28.5t19 -27.5t28.5 -32q22 -25 32 -38
q100 -123 98 -245q-6 -248 -322 -248q-41 0 -78.5 4.5t-82 20.5t-77.5 41.5t-55.5 72t-24.5 108.5zM450 235v33q39 6 56 39q7 14 8 27t-4 24.5t-10.5 20t-16.5 17.5t-17 13t-16 11q-8 5 -12 7q-30 22 -33 39q-2 8 5 17q8 12 25 13q12 1 23 -3t15 -9q6 -6 14.5 -6.5t15 5.5
t6.5 14.5t-6 15.5q-18 20 -53 24v12q0 8 -6 14.5t-14.5 6.5t-14.5 -6.5t-6 -14.5v-16q-20 -8 -33 -25q-16 -23 -12 -49q6 -34 51 -66q3 -3 12 -8q31 -20 40 -32.5t2 -25.5q-8 -15 -27 -18q-26 -4 -47 17q-6 6 -14.5 6t-14.5 -6t-6 -14.5t6 -14.5q19 -19 43 -27v-35
q0 -8 6 -14.5t14.5 -6.5t14.5 6.5t6 14.5z" />
    <glyph glyph-name="uniE649" unicode="&#xe649;" horiz-adv-x="1025" 
d="M273 77v54h109v110h-327h-55v0v601h382v54h55v-54h328v-1h54v-600h-54h-328v-110h109v-54h-273zM131 443l145 193l196 -196q9 -9 21.5 -8t19.5 11l164 218q7 9 5.5 20.5t-10.5 18t-20.5 5t-17.5 -10.5l-145 -193l-197 196q-8 9 -20.5 8t-20.5 -11l-164 -219
q-6 -9 -4.5 -20t10.5 -18t20 -5t18 11z" />
    <glyph glyph-name="uniE64A" unicode="&#xe64a;" 
d="M37 77h-1v703h703v-1h58v-702h-140h-562h-58zM446 194v117h117v58h-117v35l141 188q7 8 5.5 18.5t-10 17t-19 5t-17.5 -10.5l-129 -172l-130 172q-6 9 -16.5 10.5t-19 -5t-10 -17t4.5 -18.5l142 -189q-1 -2 0 -5v-29h-117v-58h117v-117h58zM95 838v58h644v-58h-644z" />
    <glyph glyph-name="uniE64B" unicode="&#xe64b;" horiz-adv-x="1519" 
d="M410 90l-396 396q-14 14 -14 33.5t13.5 33t33 13.5t33.5 -14l363 -363l692 693q14 14 33.5 14t33 -13.5t13.5 -33t-14 -33.5l-725 -726q-14 -13 -33.5 -13t-32.5 13z" />
    <glyph glyph-name="uniE64C" unicode="&#xe64c;" 
d="M512 896q-139 0 -257 -68.5t-186.5 -186.5t-68.5 -257t68.5 -257t186.5 -186.5t257 -68.5t257 68.5t186.5 186.5t68.5 257t-68.5 257t-186.5 186.5t-257 68.5zM512 -77q-93 0 -178.5 37t-147 98.5t-98 147t-36.5 179t36.5 178.5t98 146.5t146.5 98t179 36.5t179 -36.5
t146.5 -98t98 -146.5t36.5 -178.5t-36.5 -179t-98 -147t-147 -98.5t-178.5 -37zM459 616q-11 0 -18 -7l-209 -226l205 -227q8 -7 18.5 -7t18 7.5t7.5 18t-7 17.5l-151 166h419q11 0 18.5 7.5t7.5 18t-7.5 18t-18.5 7.5h-417l152 164q7 7 7 17.5t-7.5 18t-17.5 7.5z" />
    <glyph glyph-name="uniE64D" unicode="&#xe64d;" horiz-adv-x="1101" 
d="M0 -78q0 30 6.5 54.5t15.5 42t26.5 32t32 23.5t40.5 18t42.5 13t47.5 11q43 10 79.5 27t59.5 34.5t34.5 28.5t16.5 18q4 6 5 24v15l-1 4l-2 5l-2 6l-4 10q-8 22 -30 65l-3 8l-5 6l-8 5q-22 17 -40 44q-21 40 -19 75t24 62l-7 21q-14 57 -10 128q2 34 18 67t45 62t78.5 47
t111.5 18t111.5 -18.5t78.5 -48t45 -62t18 -65.5q4 -70 -10 -129l-7 -23l11 -13q16 -22 15 -56.5t-24 -67.5q-16 -19 -26 -29l-18 -16l-6 -8l-3 -7q-7 -12 -18.5 -39t-12.5 -30l-4 -8q-4 -8 -4 -13q0 -32 5 -39t16.5 -18t34.5 -28.5t59.5 -34.5t78.5 -27q37 -8 58 -13.5
t47.5 -16t44.5 -23.5q61 -45 58 -142q0 -22 -15.5 -35.5t-33.5 -13.5h-1001q-23 0 -36.5 16t-13.5 34zM1006 14q-29 21 -127 43q-49 11 -91 30.5t-69 40t-42 35t-23 24.5q-17 24 -17 77v2q1 18 10 38l4 7q1 2 4.5 9.5t8.5 19.5t9 21l8 17q0 3 2 7q7 13 21 27l4 3q9 6 23 22
l11 13l6 11q7 21 3.5 33.5t-14.5 20.5l-12 9v28l2 6q22 60 17 141q-1 20 -11.5 42t-31.5 44t-60 36t-89 14t-89 -13.5t-60 -35t-31.5 -44t-11.5 -43.5q-5 -82 17 -137l2 -5v-28l-11 -9q-21 -18 -14 -49l9 -23l9 -11q10 -12 24 -22l4 -3q14 -13 21 -27q1 -4 2 -7l18 -38
q6 -13 8 -19l4 -11l5 -10q8 -25 9 -28v-9q0 -52 -17 -76q-8 -10 -23 -24.5t-42 -35t-69 -40t-91 -30.5q-97 -23 -126 -43q-33 -24 -37 -74l-1 -7h978v8q-2 50 -33 73z" />
    <glyph glyph-name="uniE64E" unicode="&#xe64e;" horiz-adv-x="1101" 
d="M0 -78q0 30 6.5 54.5t15.5 42t26.5 32t32 23.5t40.5 18t42.5 13t47.5 11q43 10 79.5 27t59.5 34.5t34.5 28.5t16.5 18q4 6 5 24v15l-1 4l-2 5l-2 6l-4 10q-8 22 -30 65l-3 8l-5 6l-8 5q-22 17 -40 44q-21 40 -19 75t24 62l-7 21q-14 57 -10 128q2 34 18 67t45 62t78.5 47
t111.5 18t111.5 -18.5t78.5 -48t45 -62t18 -65.5q4 -70 -10 -129l-7 -23l11 -13q16 -22 15 -56.5t-24 -67.5q-16 -19 -26 -29l-18 -16l-6 -8l-3 -7q-7 -12 -18.5 -39t-12.5 -30l-4 -8q-4 -8 -4 -13q0 -32 5 -39t16.5 -18t34.5 -28.5t59.5 -34.5t78.5 -27q37 -8 58 -13.5
t47.5 -16t44.5 -23.5q61 -45 58 -142q0 -22 -15.5 -35.5t-33.5 -13.5h-1001q-23 0 -36.5 16t-13.5 34z" />
    <glyph glyph-name="uniE64F" unicode="&#xe64f;" 
d="M345 -63q-56 53 -67 128h-150l-1 -1q-13 1 -21 10q-10 10 -10 24t9 24l87 153v326h1q9 124 101 209.5t219 85.5q125 0 217 -85.5t101 -209.5h1v-21v-1v-2v-43v-259l87 -153q9 -10 9 -24t-10 -24q-9 -9 -21 -10l-1 1h-150q-11 -75 -67 -128q-69 -65 -166.5 -65t-167.5 65z
M635 -16q31 29 43 68l3 13h-338l3 -13q13 -39 43 -68q51 -48 123 -48t123 48zM276 128v1h473v-1h94l-66 116q-10 10 -9 25v308q0 106 -75 180.5t-181 74.5t-181 -74.5t-75 -180.5v-43v-265q1 -15 -9 -25l-66 -116h95zM620 663q-40 52 -110 52v53q46 0 87.5 -19t69.5 -55
q42 -53 36 -118h-58q6 48 -25 87z" />
    <glyph glyph-name="uniE650" unicode="&#xe650;" 
d="M345 -63q-56 53 -67 128h-150l-1 -1q-13 1 -21 10q-10 10 -10 24t9 24l87 153v326h1q9 124 101 209.5t219 85.5q125 0 217 -85.5t101 -209.5h1v-21v-1v-2v-43v-259l87 -153q9 -10 9 -24t-10 -24q-9 -9 -21 -10l-1 1h-150q-11 -75 -67 -128q-69 -65 -166.5 -65t-167.5 65z
M635 -16q31 29 43 68l3 13h-338l3 -13q13 -39 43 -68q51 -48 123 -48t123 48zM667 694q-28 36 -69.5 55t-87.5 19v-53q70 0 110 -52q31 -39 25 -87h58q6 65 -36 118z" />
    <glyph glyph-name="uniE651" unicode="&#xe651;" 
d="M106 -128v580h812v-580h-812zM860 -70v464h-696v-464h696zM454 104v174h116v-174h-116zM222 510v97q0 120 85 204.5t205 84.5t205 -85t85 -204v-97h-58v97q0 96 -68 163.5t-165 67.5q-96 0 -163.5 -68t-67.5 -163v-97h-58z" />
    <glyph glyph-name="uniE652" unicode="&#xe652;" 
d="M106 -128v580h812v-580h-812zM570 104v174h-116v-174h116zM222 510v97q0 120 85 204.5t205 84.5t205 -85t85 -204v-97h-58v97q0 96 -68 163.5t-165 67.5q-96 0 -163.5 -68t-67.5 -163v-97h-58z" />
    <glyph glyph-name="uniE653" unicode="&#xe653;" horiz-adv-x="1580" 
d="M586 -114l-568 509q-17 16 -18 39t14.5 40t38 18t40.5 -14l527 -474l864 876q17 16 40 16t39 -16t16 -39t-16 -39l-901 -913q-15 -16 -37.5 -17t-38.5 14z" />
    <glyph glyph-name="uniE654" unicode="&#xe654;" 
d="M413 -128v525l-330 367h429h429l-215 -238l-115 -129v-369l-196 -156h-2zM83 830v66h858v-66h-858z" />
    <glyph glyph-name="uniE655" unicode="&#xe655;" 
d="M918 -1h-791v791q0 8 -6 14.5t-14.5 6.5t-15 -6.5t-6.5 -14.5v-812q0 -8 6.5 -14.5t14.5 -6.5h812q8 0 14.5 6.5t6.5 15t-6.5 14.5t-14.5 6zM204 185q10 0 17 8l160 202l198 -199q7 -7 16.5 -6t15.5 8l250 334q5 7 4 15.5t-8 14t-15.5 4t-14.5 -8.5l-235 -314l-198 198
q-7 7 -16 6q-10 -1 -15 -8l-175 -220q-6 -7 -5 -15.5t8 -14.5q6 -4 13 -4z" />
    <glyph glyph-name="uniE656" unicode="&#xe656;" 
d="M768 160v63h-32v-63h-448v63h-32v-95h512v32zM679 384h-103v256v0h-128v-256h-103l167 -200zM413 352h67v11v245h64v-224v-32h67l-99 -118zM896 768v-768h-768v768h768zM939 811h-854v-854h854v854z" />
    <glyph glyph-name="uniE657" unicode="&#xe657;" 
d="M509 766q152 -15 261 -124t124 -261h-385v385zM466 811v-473h473q0 96 -37.5 183.5t-101 151t-151 101t-183.5 37.5zM466 676v-10v-43v-244v-42h43h295q0 -92 -45.5 -169.5t-123 -122.5t-169.5 -45t-169.5 45.5t-123 123.5t-45.5 169.5t45.5 169.5t123 123t169.5 45z
M466 719q-103 0 -191 -51t-139 -138.5t-51 -191t51 -191.5t139 -139t191.5 -51t191 51t138.5 139t51 191q0 20 -2 41h-336v244v94q-23 2 -43 2z" />
    <glyph glyph-name="uniE658" unicode="&#xe658;" 
d="M544 591v216h-53v-216q-35 -9 -57.5 -37.5t-22.5 -65t22.5 -65t57.5 -37.5v-429h53v429q35 9 57.5 37.5t22.5 65t-22.5 65t-57.5 37.5zM517 435q-22 0 -37.5 15.5t-15.5 37.5t15.5 38t37.5 16t37.5 -15.5t15.5 -38t-15.5 -38t-37.5 -15.5zM810 299v508h-54v-508
q-34 -9 -56.5 -37.5t-22.5 -65t22.5 -65t56.5 -37.5v-137h54v137q34 9 56.5 37.5t22.5 65t-22.5 65t-56.5 37.5zM783 143q-22 0 -37.5 15.5t-15.5 37.5t15.5 37.5t37.5 15.5t37.5 -15.5t15.5 -37.5t-15.5 -37.5t-37.5 -15.5zM278 299v508h-53v-508q-34 -9 -56.5 -37.5
t-22.5 -65t22.5 -65t56.5 -37.5v-137h53v137q35 9 57.5 37.5t22.5 65t-22.5 65t-57.5 37.5zM252 143q-22 0 -37.5 15.5t-15.5 37.5t15.5 37.5t37.5 15.5t37.5 -15.5t15.5 -37.5t-15.5 -37.5t-37.5 -15.5z" />
  </font>
</defs>
</svg>
